<?xml version="1.0" encoding="UTF-8" standalone="no"?>
<!-- Created with Inkscape (http://www.inkscape.org/) -->

<svg
   xmlns:dc="http://purl.org/dc/elements/1.1/"
   xmlns:cc="http://creativecommons.org/ns#"
   xmlns:rdf="http://www.w3.org/1999/02/22-rdf-syntax-ns#"
   xmlns:svg="http://www.w3.org/2000/svg"
   xmlns="http://www.w3.org/2000/svg"
   xmlns:sodipodi="http://sodipodi.sourceforge.net/DTD/sodipodi-0.dtd"
   xmlns:inkscape="http://www.inkscape.org/namespaces/inkscape"
   width="66.777496mm"
   height="17.321466mm"
   viewBox="0 0 66.7775 17.321466"
   version="1.1"
   id="svg849"
   inkscape:version="0.92.4 (5da689c313, 2019-01-14)"
   sodipodi:docname="logo_tw_light_tr.svg"
   inkscape:export-filename="C:\inetpub\wwwroot\triplew\template\static\img\logo_sin_img_light.png"
   inkscape:export-xdpi="96"
   inkscape:export-ydpi="96">
  <defs
     id="defs843">
    <clipPath
       clipPathUnits="userSpaceOnUse"
       id="clipPath1547">
      <rect
         style="fill:#ffffff;fill-opacity:1;stroke:none;stroke-width:0.02645832;stroke-miterlimit:4;stroke-dasharray:0.05291667, 0.02645832;stroke-dashoffset:0;stroke-opacity:1"
         id="rect1549"
         width="15.874999"
         height="15.874999"
         x="-4.7905464"
         y="6.5616055" />
    </clipPath>
  </defs>
  <sodipodi:namedview
     id="base"
     pagecolor="#ffffff"
     bordercolor="#666666"
     borderopacity="1.0"
     inkscape:pageopacity="0.0"
     inkscape:pageshadow="2"
     inkscape:zoom="3.6450009"
     inkscape:cx="190.59876"
     inkscape:cy="-24.830551"
     inkscape:document-units="mm"
     inkscape:current-layer="layer1"
     showgrid="false"
     inkscape:window-width="1920"
     inkscape:window-height="1017"
     inkscape:window-x="-8"
     inkscape:window-y="-8"
     inkscape:window-maximized="1" />
  <metadata
     id="metadata846">
    <rdf:RDF>
      <cc:Work
         rdf:about="">
        <dc:format>image/svg+xml</dc:format>
        <dc:type
           rdf:resource="http://purl.org/dc/dcmitype/StillImage" />
        <dc:title></dc:title>
      </cc:Work>
    </rdf:RDF>
  </metadata>
  <g
     inkscape:label="Capa 1"
     inkscape:groupmode="layer"
     id="layer1"
     transform="translate(-10.486652,-3.0603057)">
    <g
       aria-label="TripleW"
       transform="scale(1.0459324,0.95608474)"
       style="font-style:normal;font-weight:normal;font-size:16.32227135px;line-height:1.25;font-family:sans-serif;letter-spacing:0px;word-spacing:0px;fill:#000000;fill-opacity:1;stroke:none;stroke-width:0.26458329"
       id="text817">
      <path
         d="M 20.08409,7.5699493 H 15.844125 V 18.034374 H 14.266093 V 7.5699493 H 10.026128 V 6.1672541 H 20.08409 Z"
         style="font-style:normal;font-variant:normal;font-weight:normal;font-stretch:normal;font-family:sans-serif;-inkscape-font-specification:sans-serif;fill:#ffffff;stroke-width:0.26458329"
         id="path1417" />
      <path
         d="m 25.535473,10.765863 h -0.0797 q -0.334734,-0.0797 -0.653529,-0.111578 -0.310824,-0.03985 -0.741196,-0.03985 -0.693378,0 -1.338937,0.310825 -0.645558,0.302855 -1.243298,0.789016 v 6.320098 H 19.980482 V 9.1320417 h 1.498333 v 1.3150263 q 0.892624,-0.7172869 1.570062,-1.0121717 0.685408,-0.3028546 1.394726,-0.3028546 0.390523,0 0.56586,0.02391 0.175337,0.01594 0.52601,0.071729 z"
         style="font-style:normal;font-variant:normal;font-weight:normal;font-stretch:normal;font-family:sans-serif;-inkscape-font-specification:sans-serif;fill:#ffffff;stroke-width:0.26458329"
         id="path1419" />
      <path
         d="M 28.57199,7.641678 H 26.88238 V 6.0875555 h 1.68961 z m -0.09564,10.392696 H 26.978018 V 9.1320417 h 1.498334 z"
         style="font-style:normal;font-variant:normal;font-weight:normal;font-stretch:normal;font-family:sans-serif;-inkscape-font-specification:sans-serif;fill:#ffffff;stroke-width:0.26458329"
         id="path1421" />
      <path
         d="m 39.291451,13.475615 q 0,1.083901 -0.310825,1.984495 -0.310824,0.892624 -0.876684,1.514273 -0.526011,0.58977 -1.243298,0.916534 -0.709318,0.318794 -1.506303,0.318794 -0.693378,0 -1.259238,-0.151427 -0.55789,-0.151428 -1.13969,-0.470222 v 3.729894 H 31.457079 V 9.1320417 h 1.498334 v 0.9324733 q 0.597739,-0.5021009 1.338936,-0.836835 0.749167,-0.342704 1.593972,-0.342704 1.609912,0 2.502536,1.219388 0.900594,1.211419 0.900594,3.371251 z m -1.546153,0.03985 q 0,-1.609911 -0.54992,-2.406897 -0.54992,-0.796986 -1.68961,-0.796986 -0.645559,0 -1.299087,0.278945 -0.653529,0.278945 -1.251268,0.733227 v 5.044921 q 0.637589,0.286915 1.091871,0.390523 0.462251,0.103608 1.044051,0.103608 1.251268,0 1.952616,-0.844805 0.701347,-0.844805 0.701347,-2.502536 z"
         style="font-style:normal;font-variant:normal;font-weight:normal;font-stretch:normal;font-family:sans-serif;-inkscape-font-specification:sans-serif;fill:#ffffff;stroke-width:0.26458329"
         id="path1423" />
      <path
         d="M 43.140893,18.034374 H 41.64256 V 5.6332735 h 1.498333 z"
         style="font-style:normal;font-variant:normal;font-weight:normal;font-stretch:normal;font-family:sans-serif;-inkscape-font-specification:sans-serif;fill:#ffffff;stroke-width:0.26458329"
         id="path1425" />
      <path
         d="m 53.573437,13.73862 h -6.559194 q 0,0.820896 0.247066,1.434575 0.247065,0.605709 0.677438,0.996232 0.414432,0.382553 0.980292,0.57383 0.57383,0.191277 1.259238,0.191277 0.908564,0 1.825098,-0.358644 0.924503,-0.366613 1.315027,-0.717287 h 0.0797 v 1.633821 q -0.757137,0.318794 -1.546153,0.53398 -0.789016,0.215187 -1.65773,0.215187 -2.215621,0 -3.458919,-1.195479 -1.243298,-1.203449 -1.243298,-3.4111 0,-2.183741 1.187509,-3.466889 1.195479,-1.283147 3.140124,-1.283147 1.801189,0 2.773511,1.0520214 0.980293,1.0520216 0.980293,2.9886976 z m -1.458484,-1.147659 q -0.008,-1.17954 -0.59774,-1.825098 -0.581799,-0.645559 -1.777278,-0.645559 -1.203449,0 -1.920736,0.709318 -0.709318,0.709317 -0.804956,1.761339 z"
         style="font-style:normal;font-variant:normal;font-weight:normal;font-stretch:normal;font-family:sans-serif;-inkscape-font-specification:sans-serif;fill:#ffffff;stroke-width:0.26458329"
         id="path1427" />
      <path
         d="m 56.971785,13.749778 q 0.210405,-0.870309 0.545139,-1.817128 0.344298,-0.946819 0.717287,-1.931894 0.372989,-0.9850741 0.736415,-1.9988401 0.363425,-1.0233299 0.621649,-2.037096 0.06695,-0.2486596 0.114766,-0.4590639 0.04782,-0.2104042 0.09564,-0.4495 0.114766,-0.2486596 0.306043,-0.3825532 0.20084,-0.1338937 0.430372,-0.1338937 0.210404,0 0.392117,0.066947 0.191277,0.066947 0.32517,0.2199681 0.143458,0.1434574 0.219969,0.3729894 0.08607,0.2295319 0.08607,0.5451383 0,0.3442979 -0.105202,0.7842341 -0.37299,0.9563831 -0.755543,1.8745108 -0.382553,0.9181278 -0.745979,1.7980003 -0.353861,0.879872 -0.659904,1.740617 -0.306042,0.860745 -0.526011,1.702362 -0.01913,0.06695 -0.07651,0.296479 -0.05738,0.219968 -0.12433,0.535574 -0.05738,0.315607 -0.105202,0.679032 -0.04782,0.353862 -0.04782,0.688596 0,0.229532 0.02869,0.439936 0.02869,0.200841 0.09564,0.353862 0.06695,0.153021 0.181713,0.239096 0.114766,0.08607 0.286915,0.08607 0.363426,0 0.889436,-0.372989 0.526011,-0.382553 1.138096,-1.032894 0.612085,-0.65034 1.252862,-1.520649 0.650341,-0.870309 1.262426,-1.864947 0.612085,-0.994638 1.138096,-2.04666 0.52601,-1.0520211 0.889436,-2.075351 0.08607,-0.1817128 0.210404,-0.2295319 0.12433,-0.057383 0.32517,-0.057383 0.37299,0 0.621649,0.2295319 0.258224,0.2199681 0.258224,0.5738299 0,0.086074 -0.01913,0.1625851 -0.01913,0.076511 -0.05738,0.1817128 l -0.133893,0.392117 q -0.153022,0.4495001 -0.296479,0.8320532 -0.133894,0.372989 -0.219968,0.707724 -0.12433,0.478191 -0.200841,0.879872 -0.07651,0.392117 -0.12433,0.745979 -0.03825,0.344298 -0.05738,0.679032 -0.0096,0.334734 -0.0096,0.679032 0,0.133893 0.01913,0.392117 0.02869,0.258223 0.07651,0.57383 0.04782,0.306042 0.12433,0.631212 0.08607,0.315607 0.191276,0.583394 0.114766,0.267787 0.258224,0.439936 0.153021,0.162585 0.344298,0.162585 0.296478,0 0.621649,-0.239095 0.334734,-0.24866 0.669468,-0.669468 0.334734,-0.430373 0.669468,-1.004203 0.344298,-0.57383 0.659904,-1.233734 0.325171,-0.659904 0.612085,-1.367628 0.296479,-0.707723 0.535575,-1.396319 0.24866,-0.69816 0.430372,-1.3389362 0.191277,-0.6503405 0.306043,-1.185915 0.105202,-0.506883 0.181713,-0.9850746 0.07651,-0.4781915 0.153021,-0.956383 0.07651,-0.4781916 0.162585,-0.9563831 0.09564,-0.4877554 0.229532,-0.9946384 0.04782,-0.1817128 0.143458,-0.3729894 0.09564,-0.1912766 0.229531,-0.3442979 0.143458,-0.1625851 0.306043,-0.2582234 0.162585,-0.1052021 0.334734,-0.1052021 0.430372,0 0.583394,0.2390957 0.153021,0.229532 0.153021,0.7746703 0,0.4016809 -0.07651,0.9372554 -0.06695,0.5355745 -0.181712,1.128532 -0.105202,0.5833937 -0.239096,1.185915 -0.133894,0.6025214 -0.267787,1.1380959 -0.267788,1.0902767 -0.707724,2.2666278 -0.439936,1.166787 -0.985074,2.285756 -0.535575,1.109404 -1.14766,2.094479 -0.602521,0.985074 -1.214607,1.692798 -0.210404,0.248659 -0.497319,0.506883 -0.286915,0.258223 -0.621649,0.468627 -0.32517,0.210405 -0.669468,0.344298 -0.334734,0.143458 -0.65034,0.143458 -0.659905,0 -1.109405,-0.382554 -0.439936,-0.392117 -0.726851,-1.032893 -0.277351,-0.650341 -0.430372,-1.47283 -0.143458,-0.832054 -0.210405,-1.711926 -0.535574,0.793798 -0.985074,1.415447 -0.439936,0.621649 -0.899,1.14766 -0.344298,0.392117 -0.77467,0.851181 -0.430373,0.4495 -0.918128,0.832053 -0.478192,0.392117 -0.985075,0.640777 -0.506883,0.258223 -0.994638,0.258223 -0.564266,0 -0.946819,-0.20084 -0.37299,-0.191277 -0.602522,-0.535575 -0.229532,-0.344298 -0.334734,-0.812926 -0.09564,-0.468627 -0.09564,-1.013766 0,-0.631212 0.105202,-1.300681 0.105202,-0.669468 0.267787,-1.338936 z"
         style="font-size:19.58672523px;fill:#00c100;fill-opacity:1;stroke-width:0.26458329"
         id="path1429" />
    </g>
  </g>
</svg>
